# xmcd CD database file
#
# Track frame offsets:
#	150
#	16757
#	37219
#	56818
#	81640
#	102515
#	131282
#	149249
#	168767
#	184760
#	202507
#	235365
#	250513
#	269036
#	285354
#	313487
#
# Disc length: 4450 seconds
#
# Revision: 0
# Processed by: cddbd v1.5.2PL0 Copyright (c) Steve Scherf et al.
# Submitted via: CDex 1.70beta2
#
DISCID=ed116010
DTITLE=Sade - Sade Essential [CD1)
DYEAR=2007
DGENRE=Blues
TTITLE0=Your Love Is King
TTITLE1=Hang On To Your Love
TTITLE2=Smooth Operator
TTITLE3=Jezebel
TTITLE4=The Sweetest Taboo
TTITLE5=Is It A Crime
TTITLE6=Never As Good As The First Time
TTITLE7=Love Is Stranger Than Pride
TTITLE8=Paradise
TTITLE9=Nothing Can Come Between Us
TTITLE10=No Ordinary Love
TTITLE11=Like A Tattoo
TTITLE12=Kiss of Life
TTITLE13=Please Send Me Someone To Love
TTITLE14=Cherish The Day
TTITLE15=Pearls
EXTD=YEAR: 2007
EXTT0=
EXTT1=
EXTT2=
EXTT3=
EXTT4=
EXTT5=
EXTT6=
EXTT7=
EXTT8=
EXTT9=
EXTT10=
EXTT11=
EXTT12=
EXTT13=
EXTT14=
EXTT15=
PLAYORDER=
